<svg width="146" height="146" viewBox="0 0 146 146" fill="none" xmlns="http://www.w3.org/2000/svg">
<g clip-path="url(#clip0_33_29)">
<mask id="mask0_33_29" style="mask-type:luminance" maskUnits="userSpaceOnUse" x="0" y="0" width="146" height="146">
<path d="M146 0H0V146H146V0Z" fill="white"/>
</mask>
<g mask="url(#mask0_33_29)">
<path d="M68.2191 0.0392949C67.9052 0.0678383 66.9057 0.167741 66.0066 0.239099C45.27 2.1087 25.8461 13.2977 13.5439 30.4952C6.69343 40.0573 2.31203 50.9038 0.656501 62.3925C0.0713587 66.4032 0 67.5877 0 73.0249C0 78.4628 0.0713587 79.6473 0.656501 83.6574C4.62404 111.074 24.1336 134.108 50.5934 142.643C55.3316 144.17 60.3267 145.212 66.0066 145.839C68.2191 146.082 77.7809 146.082 79.9934 145.839C89.7979 144.755 98.1041 142.329 106.296 138.147C107.552 137.505 107.794 137.334 107.623 137.191C107.509 137.105 102.157 129.927 95.7346 121.249L84.0607 105.479L69.4321 83.8289C61.3827 71.9263 54.7607 62.193 54.7036 62.193C54.6465 62.1784 54.5895 71.7979 54.5609 83.543C54.5181 104.109 54.5038 104.937 54.2469 105.422C53.8759 106.121 53.5904 106.407 52.991 106.721C52.5343 106.949 52.1347 106.992 49.9797 106.992H47.5107L46.8541 106.578C46.426 106.307 46.112 105.95 45.898 105.536L45.5982 104.894L45.6268 76.2789L45.6696 47.6498L46.112 47.0933C46.3404 46.7935 46.8256 46.4082 47.1682 46.2227C47.7533 45.9373 47.9816 45.9087 50.4506 45.9087C53.3621 45.9087 53.8473 46.0228 54.6037 46.8506C54.8178 47.079 62.7386 59.0102 72.2153 73.382C81.6913 87.7533 94.65 107.377 101.016 117.01L112.576 134.522L113.161 134.137C118.342 130.769 123.822 125.973 128.16 120.978C137.394 110.374 143.345 97.444 145.344 83.6574C145.929 79.6473 146 78.4628 146 73.0249C146 67.5877 145.929 66.4032 145.344 62.3925C141.376 34.9765 121.866 11.9419 95.4067 3.40743C90.7396 1.89462 85.7732 0.852786 80.2075 0.224828C78.837 0.0821104 69.4035 -0.0748792 68.2191 0.0392949ZM98.1041 44.1961C98.7891 44.5386 99.3457 45.1951 99.5452 45.8801C99.6596 46.2512 99.6882 54.1863 99.6596 72.0686L99.617 97.7294L95.0928 90.7931L90.5541 83.8575V65.2042C90.5541 53.1445 90.6113 46.3654 90.697 46.0371C90.9251 45.2379 91.4246 44.61 92.1096 44.2389C92.6948 43.9392 92.9089 43.9107 95.15 43.9107C97.2622 43.9107 97.6332 43.9392 98.1041 44.1961Z" fill="black"/>
</g>
</g>
<defs>
<clipPath id="clip0_33_29">
<rect width="146" height="146" fill="white"/>
</clipPath>
</defs>
</svg>
