<svg width="124" height="146" viewBox="0 0 124 146" fill="none" xmlns="http://www.w3.org/2000/svg">
<path d="M123.046 111.937L71.5919 4.44007C68.9401 -1.09893 61.2439 -1.5548 57.9604 3.63261L0.89892 93.7404C-0.331637 95.6831 -0.295882 98.168 0.988308 100.075L29.7321 142.751C31.5169 145.4 34.7973 146.595 37.8633 145.713L118.294 122.547C122.813 121.245 125.081 116.185 123.046 111.937ZM111.682 115.801L44.037 134.778C42.4697 135.219 40.9978 133.83 41.3375 132.236L65.3199 20.1096C65.752 18.0894 68.4902 17.7617 69.3841 19.6239L113.61 111.636C114.381 113.322 113.467 115.3 111.682 115.801Z" fill="black"/>
</svg>
