<svg width="146" height="146" viewBox="0 0 146 146" fill="none" xmlns="http://www.w3.org/2000/svg">
<g clip-path="url(#clip0_34_46)">
<path d="M146 73C146 32.6832 113.317 0 73 0C32.6832 0 0 32.6832 0 73C0 113.317 32.6832 146 73 146C113.317 146 146 113.317 146 73Z" fill="#3178C6"/>
<path fill-rule="evenodd" clip-rule="evenodd" d="M79.5412 91.0858V105.361C81.8618 106.551 84.6064 107.443 87.7751 108.037C90.9437 108.632 94.2832 108.93 97.7941 108.93C101.216 108.93 104.466 108.603 107.545 107.948C110.625 107.294 113.325 106.216 115.645 104.714C117.966 103.212 119.803 101.249 121.157 98.8255C122.511 96.4016 123.188 93.4055 123.188 89.8368C123.188 87.2493 122.801 84.9817 122.027 83.0338C121.254 81.0859 120.138 79.3536 118.68 77.8368C117.222 76.3201 115.474 74.9593 113.436 73.7548C111.398 72.5503 109.1 71.4128 106.541 70.3423C104.667 69.569 102.986 68.8182 101.498 68.0896C100.011 67.3608 98.7462 66.6173 97.7048 65.8591C96.6634 65.1006 95.8601 64.2976 95.2949 63.4501C94.7298 62.6023 94.4469 61.6434 94.4469 60.5726C94.4469 59.5914 94.6998 58.7065 95.2057 57.9184C95.7116 57.1302 96.4256 56.4538 97.3478 55.8886C98.2703 55.3237 99.4006 54.8849 100.739 54.5726C102.079 54.2604 103.566 54.1044 105.202 54.1044C106.392 54.1044 107.649 54.1937 108.973 54.3719C110.297 54.5504 111.629 54.8256 112.968 55.1971C114.307 55.569 115.608 56.0375 116.873 56.6024C118.137 57.1676 119.305 57.8217 120.376 58.5654V45.2269C118.204 44.3943 115.831 43.7772 113.258 43.3757C110.684 42.9742 107.731 42.7734 104.399 42.7734C101.007 42.7734 97.7941 43.1379 94.7594 43.8664C91.7248 44.595 89.0546 45.7325 86.7485 47.2789C84.4427 48.8256 82.6206 50.7957 81.2818 53.1899C79.943 55.5838 79.2734 58.4462 79.2734 61.7771C79.2734 66.0299 80.5007 69.6583 82.9554 72.6621C85.4097 75.6656 89.1361 78.2084 94.1346 80.2903C96.0982 81.0933 97.9281 81.8812 99.6239 82.6545C101.32 83.4279 102.785 84.2309 104.02 85.0635C105.254 85.8962 106.229 86.8033 106.943 87.7848C107.657 88.766 108.014 89.8812 108.014 91.1305C108.014 92.0524 107.791 92.9073 107.345 93.6955C106.898 94.4837 106.221 95.1675 105.314 95.7475C104.407 96.3275 103.276 96.7809 101.922 97.108C100.568 97.4353 98.9843 97.5987 97.1693 97.5987C94.075 97.5987 91.0108 97.0561 87.9758 95.9705C84.9412 94.8852 82.1296 93.2569 79.5412 91.0858ZM55.5427 55.914H73.8555V44.1992H22.8125V55.914H41.0357V108.074H55.5427V55.914Z" fill="white"/>
</g>
<defs>
<clipPath id="clip0_34_46">
<rect width="146" height="146" fill="white"/>
</clipPath>
</defs>
</svg>
